<svg width="229" height="232" viewBox="0 0 229 232" fill="none" xmlns="http://www.w3.org/2000/svg">
<path d="M120.849 232C112.083 232 103.316 232 94.4872 231.848C92.1637 231.216 89.9119 230.688 87.6409 230.262C76.2058 228.116 65.3449 224.361 55.0712 218.891C43.7323 212.853 34.0181 204.885 25.752 195.057C19.8654 188.059 15.1413 180.34 11.5996 172.005C5.97849 158.776 2.09053 145.024 0.841455 130.623C0.814676 130.314 0.291571 130.049 0 129.763C4.37859e-07 121.015 4.43673e-07 112.268 0.153944 103.458C0.493517 103.102 0.797151 102.827 0.846447 102.512C1.31835 99.4958 1.677 96.461 2.20193 93.455C3.67368 85.0268 6.21766 76.9026 9.80549 69.1515C15.8424 56.1093 23.7466 44.3559 34.8195 34.9859C39.4905 31.0332 44.2788 27.192 49.2434 23.6176C55.9048 18.8216 63.0645 14.7811 70.7273 11.8126C77.7351 9.09781 84.8137 6.46251 92.0469 4.461C98.1662 2.76772 104.554 2.04189 110.813 0.842439C111.136 0.780682 111.376 0.290641 111.654 0C121.442 4.36911e-07 131.23 4.42713e-07 141.08 0.153482C141.51 0.495278 141.861 0.800903 142.247 0.852838C144.721 1.18624 147.241 1.28492 149.677 1.79134C159.784 3.8926 169.564 7.03036 178.778 11.7174C185.408 15.09 191.657 19.0534 197.488 23.7371C203.932 28.914 209.797 34.6405 214.472 41.3952C221.878 52.0949 226.75 63.8754 228.159 76.9349C228.192 77.2399 228.709 77.493 229 77.7702C229 85.4981 229 93.226 228.846 101.016C228.503 101.518 228.218 101.941 228.14 102.399C227.191 107.987 226.538 113.64 225.286 119.158C223.185 128.422 220.187 137.408 216.438 146.174C212.96 154.305 208.902 162.09 204.22 169.571C198.858 178.139 193.067 186.417 186.061 193.726C180.574 199.451 175.002 205.159 168.955 210.271C161.986 216.163 154.108 220.859 145.659 224.41C138.035 227.614 130.17 230.113 121.906 231.158C121.524 231.206 121.2 231.709 120.849 232Z" fill="#D2EAFF"/>
<path d="M173.038 78.173H167.314V72.4487C167.314 70.9305 166.71 69.4745 165.637 68.401C164.563 67.3274 163.107 66.7243 161.589 66.7243C160.071 66.7243 158.615 67.3274 157.542 68.401C156.468 69.4745 155.865 70.9305 155.865 72.4487V78.173H150.141C148.622 78.173 147.166 78.7761 146.093 79.8496C145.019 80.9231 144.416 82.3791 144.416 83.8973C144.416 85.4155 145.019 86.8715 146.093 87.945C147.166 89.0185 148.622 89.6216 150.141 89.6216H155.865V95.346C155.865 96.8642 156.468 98.3202 157.542 99.3937C158.615 100.467 160.071 101.07 161.589 101.07C163.107 101.07 164.563 100.467 165.637 99.3937C166.71 98.3202 167.314 96.8642 167.314 95.346V89.6216H173.038C174.556 89.6216 176.012 89.0185 177.086 87.945C178.159 86.8715 178.762 85.4155 178.762 83.8973C178.762 82.3791 178.159 80.9231 177.086 79.8496C176.012 78.7761 174.556 78.173 173.038 78.173Z" fill="#3B5DA4"/>
<path d="M110.07 106.795C114.599 106.795 119.026 105.452 122.791 102.936C126.557 100.42 129.492 96.8437 131.225 92.6597C132.958 88.4758 133.411 83.8719 132.528 79.4303C131.644 74.9886 129.463 70.9087 126.261 67.7065C123.059 64.5042 118.979 62.3235 114.537 61.44C110.096 60.5565 105.492 61.0099 101.308 62.743C97.1239 64.476 93.5479 67.4108 91.0319 71.1763C88.5159 74.9417 87.173 79.3687 87.173 83.8973C87.173 89.9701 89.5854 95.7941 93.8794 100.088C98.1735 104.382 103.998 106.795 110.07 106.795Z" fill="#3B5DA4"/>
<path d="M144.416 164.038C145.934 164.038 147.39 163.435 148.464 162.361C149.537 161.288 150.141 159.832 150.141 158.314C150.141 147.686 145.919 137.494 138.404 129.98C130.89 122.465 120.698 118.243 110.07 118.243C99.443 118.243 89.251 122.465 81.7363 129.98C74.2217 137.494 70 147.686 70 158.314C70 159.832 70.6031 161.288 71.6766 162.361C72.7501 163.435 74.2061 164.038 75.7243 164.038" fill="#3B5DA4"/>
</svg>
