<svg width="229" height="232" viewBox="0 0 229 232" fill="none" xmlns="http://www.w3.org/2000/svg">
<path d="M120.849 232C112.083 232 103.316 232 94.4872 231.848C92.1637 231.216 89.9119 230.688 87.6409 230.262C76.2058 228.116 65.3449 224.361 55.0712 218.891C43.7323 212.853 34.0181 204.885 25.752 195.057C19.8654 188.059 15.1413 180.34 11.5996 172.005C5.97849 158.776 2.09053 145.024 0.841455 130.623C0.814676 130.314 0.291571 130.049 0 129.763C4.37859e-07 121.015 4.43673e-07 112.268 0.153944 103.458C0.493517 103.102 0.797151 102.827 0.846447 102.512C1.31835 99.4958 1.677 96.461 2.20193 93.455C3.67368 85.0268 6.21766 76.9026 9.80549 69.1515C15.8424 56.1093 23.7466 44.3559 34.8195 34.9859C39.4905 31.0332 44.2788 27.192 49.2434 23.6176C55.9048 18.8216 63.0645 14.7811 70.7273 11.8126C77.7351 9.09781 84.8137 6.46251 92.0469 4.461C98.1662 2.76772 104.554 2.04189 110.813 0.842439C111.136 0.780682 111.376 0.290641 111.654 0C121.442 4.36912e-07 131.23 4.42713e-07 141.08 0.153482C141.51 0.495278 141.861 0.800903 142.247 0.852838C144.721 1.18624 147.241 1.28492 149.677 1.79134C159.784 3.8926 169.564 7.03036 178.778 11.7174C185.408 15.09 191.657 19.0534 197.488 23.7371C203.932 28.914 209.797 34.6405 214.472 41.3952C221.878 52.0949 226.75 63.8754 228.159 76.9349C228.192 77.2399 228.709 77.493 229 77.7702C229 85.4981 229 93.226 228.846 101.016C228.503 101.518 228.218 101.941 228.14 102.399C227.191 107.987 226.538 113.64 225.286 119.158C223.185 128.422 220.187 137.408 216.438 146.174C212.96 154.305 208.902 162.09 204.22 169.571C198.858 178.139 193.067 186.417 186.061 193.726C180.574 199.451 175.002 205.159 168.955 210.271C161.986 216.163 154.108 220.859 145.659 224.41C138.035 227.614 130.17 230.113 121.906 231.158C121.524 231.206 121.2 231.709 120.849 232Z" fill="#D2EAFF"/>
<path d="M97.5189 109.968C102.048 109.968 106.475 108.625 110.24 106.109C114.005 103.593 116.94 100.017 118.673 95.8327C120.406 91.6488 120.86 87.0449 119.976 82.6032C119.093 78.1616 116.912 74.0817 113.71 70.8794C110.507 67.6772 106.428 65.4964 101.986 64.6129C97.5443 63.7295 92.9404 64.1829 88.7565 65.9159C84.5725 67.649 80.9965 70.5838 78.4805 74.3492C75.9645 78.1147 74.6216 82.5416 74.6216 87.0703C74.6216 93.143 77.034 98.9671 81.328 103.261C85.6221 107.555 91.4461 109.968 97.5189 109.968Z" fill="#3B5DA4"/>
<path d="M143.314 121.416C146.71 121.416 150.03 120.409 152.854 118.522C155.678 116.635 157.88 113.953 159.179 110.815C160.479 107.677 160.819 104.224 160.157 100.893C159.494 97.5618 157.858 94.5018 155.457 92.1001C153.055 89.6985 149.995 88.0629 146.664 87.4003C143.333 86.7376 139.88 87.0777 136.742 88.3775C133.604 89.6773 130.922 91.8784 129.035 94.7025C127.148 97.5266 126.141 100.847 126.141 104.243C126.141 108.798 127.95 113.166 131.17 116.386C134.391 119.607 138.759 121.416 143.314 121.416Z" fill="#3B5DA4"/>
<path d="M166.211 161.487C167.729 161.487 169.185 160.883 170.259 159.81C171.332 158.736 171.935 157.28 171.935 155.762C171.931 150.412 170.427 145.171 167.594 140.632C164.761 136.094 160.713 132.44 155.909 130.086C151.105 127.731 145.737 126.77 140.415 127.312C135.092 127.854 130.028 129.877 125.797 133.151C120.19 127.566 113.055 123.767 105.292 122.232C97.5281 120.696 89.4839 121.495 82.1734 124.525C74.8629 127.556 68.6135 132.684 64.2134 139.261C59.8133 145.839 57.4594 153.573 57.4487 161.487C57.4487 163.005 58.0518 164.461 59.1253 165.534C60.1989 166.608 61.6549 167.211 63.1731 167.211H131.865C133.383 167.211 134.839 166.608 135.913 165.534C136.986 164.461 137.589 163.005 137.589 161.487" fill="#3B5DA4"/>
</svg>
