<svg width="229" height="232" viewBox="0 0 229 232" fill="none" xmlns="http://www.w3.org/2000/svg">
<path d="M120.849 232C112.083 232 103.316 232 94.4872 231.848C92.1637 231.216 89.9119 230.688 87.6409 230.262C76.2058 228.116 65.3449 224.361 55.0712 218.891C43.7323 212.853 34.0181 204.885 25.752 195.057C19.8654 188.059 15.1413 180.34 11.5996 172.005C5.97849 158.776 2.09053 145.024 0.841455 130.623C0.814676 130.314 0.291571 130.049 0 129.763C4.37859e-07 121.015 4.43673e-07 112.268 0.153944 103.458C0.493517 103.102 0.797151 102.827 0.846447 102.512C1.31835 99.4958 1.677 96.461 2.20193 93.455C3.67368 85.0268 6.21766 76.9026 9.80549 69.1515C15.8424 56.1093 23.7466 44.3559 34.8195 34.9859C39.4905 31.0332 44.2788 27.192 49.2434 23.6176C55.9048 18.8216 63.0645 14.7811 70.7273 11.8126C77.7351 9.09781 84.8137 6.46251 92.0469 4.461C98.1662 2.76772 104.554 2.04189 110.813 0.842439C111.136 0.780682 111.376 0.290641 111.654 0C121.442 4.36912e-07 131.23 4.42713e-07 141.08 0.153482C141.51 0.495278 141.861 0.800903 142.247 0.852838C144.721 1.18624 147.241 1.28492 149.677 1.79134C159.784 3.8926 169.564 7.03036 178.778 11.7174C185.408 15.09 191.657 19.0534 197.488 23.7371C203.932 28.914 209.797 34.6405 214.472 41.3952C221.878 52.0949 226.75 63.8754 228.159 76.9349C228.192 77.2399 228.709 77.493 229 77.7702C229 85.4981 229 93.226 228.846 101.016C228.503 101.518 228.218 101.941 228.14 102.399C227.191 107.987 226.538 113.64 225.286 119.158C223.185 128.422 220.187 137.408 216.438 146.174C212.96 154.305 208.902 162.09 204.22 169.571C198.858 178.139 193.067 186.417 186.061 193.726C180.574 199.451 175.002 205.159 168.955 210.271C161.986 216.163 154.108 220.859 145.659 224.41C138.035 227.614 130.17 230.113 121.906 231.158C121.524 231.206 121.2 231.709 120.849 232Z" fill="#D2EAFF"/>
<path d="M131.426 136.815H100.648C99.2876 136.815 97.9828 137.356 97.0208 138.318C96.0588 139.28 95.5184 140.585 95.5184 141.945C95.5184 143.305 96.0588 144.61 97.0208 145.572C97.9828 146.534 99.2876 147.075 100.648 147.075H131.426C132.786 147.075 134.091 146.534 135.053 145.572C136.015 144.61 136.555 143.305 136.555 141.945C136.555 140.585 136.015 139.28 135.053 138.318C134.091 137.356 132.786 136.815 131.426 136.815Z" fill="#3B5DA4"/>
<path d="M100.648 126.556H116.037C117.397 126.556 118.702 126.016 119.664 125.054C120.626 124.092 121.166 122.787 121.166 121.427C121.166 120.066 120.626 118.761 119.664 117.799C118.702 116.837 117.397 116.297 116.037 116.297H100.648C99.2876 116.297 97.9828 116.837 97.0208 117.799C96.0588 118.761 95.5184 120.066 95.5184 121.427C95.5184 122.787 96.0588 124.092 97.0208 125.054C97.9828 126.016 99.2876 126.556 100.648 126.556Z" fill="#3B5DA4"/>
<path d="M155.74 97.4713L127.835 66.6937C127.355 66.1623 126.77 65.7372 126.116 65.4456C125.462 65.1541 124.755 65.0026 124.039 65.0009H88.1318C86.4275 64.9806 84.7358 65.2962 83.1535 65.9297C81.5712 66.5632 80.1291 67.5021 78.9097 68.693C77.6903 69.8838 76.7174 71.3032 76.0465 72.8701C75.3757 74.437 75.0201 76.1206 75 77.8249V154.769C75.0201 156.473 75.3757 158.157 76.0465 159.724C76.7174 161.291 77.6903 162.71 78.9097 163.901C80.1291 165.092 81.5712 166.031 83.1535 166.664C84.7358 167.298 86.4275 167.613 88.1318 167.593H143.942C145.646 167.613 147.338 167.298 148.92 166.664C150.503 166.031 151.945 165.092 153.164 163.901C154.383 162.71 155.356 161.291 156.027 159.724C156.698 158.157 157.054 156.473 157.074 154.769V100.908C157.07 99.6369 156.595 98.4121 155.74 97.4713ZM126.296 80.3897L140.351 95.7786H130.092C129.555 95.7461 129.029 95.607 128.547 95.3694C128.064 95.1317 127.633 94.8003 127.28 94.3944C126.926 93.9885 126.657 93.5163 126.489 93.0054C126.32 92.4944 126.254 91.9549 126.296 91.4184V80.3897ZM143.942 157.334H88.1318C87.7746 157.355 87.4169 157.305 87.0791 157.187C86.7412 157.069 86.43 156.886 86.1631 156.648C85.8962 156.409 85.679 156.121 85.5239 155.798C85.3688 155.476 85.2789 155.126 85.2592 154.769V77.8249C85.2789 77.4677 85.3688 77.1179 85.5239 76.7955C85.679 76.4731 85.8962 76.1845 86.1631 75.9463C86.43 75.708 86.7412 75.5247 87.0791 75.407C87.4169 75.2892 87.7746 75.2393 88.1318 75.2601H116.037V91.4184C115.954 95.197 117.369 98.8549 119.974 101.594C122.578 104.333 126.16 105.93 129.938 106.038H146.814V154.769C146.795 155.126 146.705 155.476 146.55 155.798C146.395 156.121 146.177 156.409 145.911 156.648C145.644 156.886 145.332 157.069 144.995 157.187C144.657 157.305 144.299 157.355 143.942 157.334Z" fill="#3B5DA4"/>
</svg>
