<svg width="229" height="232" viewBox="0 0 229 232" fill="none" xmlns="http://www.w3.org/2000/svg">
<path d="M120.849 232C112.083 232 103.316 232 94.4872 231.848C92.1637 231.216 89.9119 230.688 87.6409 230.262C76.2058 228.116 65.3449 224.361 55.0712 218.891C43.7323 212.853 34.0181 204.885 25.752 195.057C19.8654 188.059 15.1413 180.34 11.5996 172.005C5.97849 158.776 2.09053 145.024 0.841455 130.623C0.814676 130.314 0.291571 130.049 0 129.763C4.37859e-07 121.015 4.43673e-07 112.268 0.153944 103.458C0.493517 103.102 0.797151 102.827 0.846447 102.512C1.31835 99.4958 1.677 96.461 2.20193 93.455C3.67368 85.0268 6.21766 76.9026 9.80549 69.1515C15.8424 56.1093 23.7466 44.3559 34.8195 34.9859C39.4905 31.0332 44.2788 27.192 49.2434 23.6176C55.9048 18.8216 63.0645 14.7811 70.7273 11.8126C77.7351 9.09781 84.8137 6.46251 92.0469 4.461C98.1662 2.76772 104.554 2.04189 110.813 0.842439C111.136 0.780682 111.376 0.290641 111.654 0C121.442 4.36912e-07 131.23 4.42713e-07 141.08 0.153482C141.51 0.495278 141.861 0.800903 142.247 0.852838C144.721 1.18624 147.241 1.28492 149.677 1.79134C159.784 3.8926 169.564 7.03036 178.778 11.7174C185.408 15.09 191.657 19.0534 197.488 23.7371C203.932 28.914 209.797 34.6405 214.472 41.3952C221.878 52.0949 226.75 63.8754 228.159 76.9349C228.192 77.2399 228.709 77.493 229 77.7702C229 85.4981 229 93.226 228.846 101.016C228.503 101.518 228.218 101.941 228.14 102.399C227.191 107.987 226.538 113.64 225.286 119.158C223.185 128.422 220.187 137.408 216.438 146.174C212.96 154.305 208.902 162.09 204.22 169.571C198.858 178.139 193.067 186.417 186.061 193.726C180.574 199.451 175.002 205.159 168.955 210.271C161.986 216.163 154.108 220.859 145.659 224.41C138.035 227.614 130.17 230.113 121.906 231.158C121.524 231.206 121.2 231.709 120.849 232Z" fill="#D2EAFF"/>
<path d="M162.929 155.238L144.513 136.875C150.455 129.305 153.679 119.957 153.667 110.333C153.667 101.763 151.125 93.3848 146.364 86.2586C141.602 79.1325 134.834 73.5784 126.916 70.2986C118.998 67.0188 110.285 66.1606 101.879 67.8327C93.4736 69.5047 85.7523 73.6318 79.6921 79.6921C73.6318 85.7523 69.5047 93.4736 67.8327 101.879C66.1606 110.285 67.0188 118.998 70.2986 126.916C73.5784 134.834 79.1325 141.602 86.2586 146.364C93.3848 151.125 101.763 153.667 110.333 153.667C119.957 153.679 129.305 150.455 136.875 144.513L155.238 162.929C155.741 163.437 156.34 163.84 157 164.115C157.66 164.39 158.368 164.531 159.083 164.531C159.798 164.531 160.506 164.39 161.166 164.115C161.827 163.84 162.426 163.437 162.929 162.929C163.437 162.426 163.84 161.827 164.115 161.166C164.39 160.506 164.531 159.798 164.531 159.083C164.531 158.368 164.39 157.66 164.115 157C163.84 156.34 163.437 155.741 162.929 155.238ZM77.8334 110.333C77.8334 103.905 79.7394 97.6219 83.3106 92.2773C86.8817 86.9327 91.9575 82.7671 97.8961 80.3073C103.835 77.8474 110.369 77.2038 116.674 78.4578C122.978 79.7119 128.769 82.8072 133.314 87.3524C137.86 91.8976 140.955 97.6885 142.209 103.993C143.463 110.297 142.819 116.832 140.359 122.771C137.9 128.709 133.734 133.785 128.389 137.356C123.045 140.927 116.761 142.833 110.333 142.833C101.714 142.833 93.4473 139.409 87.3524 133.314C81.2575 127.219 77.8334 118.953 77.8334 110.333Z" fill="#3B5DA4"/>
</svg>
