<svg width="40" height="40" viewBox="0 0 40 40" fill="none" xmlns="http://www.w3.org/2000/svg">
<path d="M20 0C16.0444 0 12.1776 1.17298 8.8886 3.37061C5.59962 5.56823 3.03617 8.69181 1.52242 12.3463C0.00866568 16.0008 -0.387401 20.0222 0.384303 23.9018C1.15601 27.7814 3.06082 31.3451 5.85787 34.1421C8.65492 36.9392 12.2186 38.844 16.0982 39.6157C19.9778 40.3874 23.9992 39.9913 27.6537 38.4776C31.3082 36.9638 34.4318 34.4004 36.6294 31.1114C38.827 27.8224 40 23.9556 40 20C40 17.3736 39.4827 14.7728 38.4776 12.3463C37.4725 9.91982 35.9993 7.71503 34.1421 5.85786C32.285 4.00069 30.0802 2.5275 27.6537 1.52241C25.2272 0.517315 22.6264 0 20 0V0ZM20 32C19.6044 32 19.2178 31.8827 18.8889 31.6629C18.56 31.4432 18.3036 31.1308 18.1522 30.7654C18.0009 30.3999 17.9613 29.9978 18.0384 29.6098C18.1156 29.2218 18.3061 28.8655 18.5858 28.5858C18.8655 28.3061 19.2219 28.1156 19.6098 28.0384C19.9978 27.9613 20.3999 28.0009 20.7654 28.1522C21.1308 28.3036 21.4432 28.56 21.6629 28.8889C21.8827 29.2177 22 29.6044 22 30C22 30.5304 21.7893 31.0391 21.4142 31.4142C21.0391 31.7893 20.5304 32 20 32ZM22 21.68V24C22 24.5304 21.7893 25.0391 21.4142 25.4142C21.0391 25.7893 20.5304 26 20 26C19.4696 26 18.9609 25.7893 18.5858 25.4142C18.2107 25.0391 18 24.5304 18 24V20C18 19.4696 18.2107 18.9609 18.5858 18.5858C18.9609 18.2107 19.4696 18 20 18C20.5933 18 21.1734 17.824 21.6667 17.4944C22.1601 17.1648 22.5446 16.6962 22.7716 16.148C22.9987 15.5999 23.0581 14.9967 22.9424 14.4147C22.8266 13.8328 22.5409 13.2982 22.1213 12.8787C21.7018 12.4591 21.1672 12.1734 20.5853 12.0576C20.0033 11.9419 19.4001 12.0013 18.852 12.2284C18.3038 12.4554 17.8352 12.8399 17.5056 13.3333C17.176 13.8266 17 14.4067 17 15C17 15.5304 16.7893 16.0391 16.4142 16.4142C16.0391 16.7893 15.5304 17 15 17C14.4696 17 13.9609 16.7893 13.5858 16.4142C13.2107 16.0391 13 15.5304 13 15C12.9948 13.7006 13.3513 12.4254 14.0297 11.3171C14.7082 10.2089 15.6816 9.31136 16.8412 8.72501C18.0008 8.13866 19.3007 7.88664 20.5954 7.99719C21.8901 8.10773 23.1285 8.57645 24.1719 9.3509C25.2153 10.1253 26.0226 11.1749 26.5033 12.3821C26.984 13.5893 27.1192 14.9065 26.8938 16.1862C26.6684 17.4659 26.0912 18.6576 25.2269 19.6279C24.3626 20.5982 23.2452 21.3087 22 21.68V21.68Z" fill="#ABABB5"/>
</svg>
