<svg width="229" height="232" viewBox="0 0 229 232" fill="none" xmlns="http://www.w3.org/2000/svg">
<path d="M120.849 232C112.083 232 103.316 232 94.4872 231.848C92.1637 231.216 89.9119 230.688 87.6409 230.262C76.2058 228.116 65.3449 224.361 55.0712 218.891C43.7323 212.853 34.0181 204.885 25.752 195.057C19.8654 188.059 15.1413 180.34 11.5996 172.005C5.97849 158.776 2.09053 145.024 0.841455 130.623C0.814676 130.314 0.291571 130.049 0 129.763C4.37859e-07 121.015 4.43673e-07 112.268 0.153944 103.458C0.493517 103.102 0.797151 102.827 0.846447 102.512C1.31835 99.4958 1.677 96.461 2.20193 93.455C3.67368 85.0268 6.21766 76.9026 9.80549 69.1515C15.8424 56.1093 23.7466 44.3559 34.8195 34.9859C39.4905 31.0332 44.2788 27.192 49.2434 23.6176C55.9048 18.8216 63.0645 14.7811 70.7273 11.8126C77.7351 9.09781 84.8137 6.46251 92.0469 4.461C98.1662 2.76772 104.554 2.04189 110.813 0.842439C111.136 0.780682 111.376 0.290641 111.654 0C121.442 4.36912e-07 131.23 4.42713e-07 141.08 0.153482C141.51 0.495278 141.861 0.800903 142.247 0.852838C144.721 1.18624 147.241 1.28492 149.677 1.79134C159.784 3.8926 169.564 7.03036 178.778 11.7174C185.408 15.09 191.657 19.0534 197.488 23.7371C203.932 28.914 209.797 34.6405 214.472 41.3952C221.878 52.0949 226.75 63.8754 228.159 76.9349C228.192 77.2399 228.709 77.493 229 77.7702C229 85.4981 229 93.226 228.846 101.016C228.503 101.518 228.218 101.941 228.14 102.399C227.191 107.987 226.538 113.64 225.286 119.158C223.185 128.422 220.187 137.408 216.438 146.174C212.96 154.305 208.902 162.09 204.22 169.571C198.858 178.139 193.067 186.417 186.061 193.726C180.574 199.451 175.002 205.159 168.955 210.271C161.986 216.163 154.108 220.859 145.659 224.41C138.035 227.614 130.17 230.113 121.906 231.158C121.524 231.206 121.2 231.709 120.849 232Z" fill="#D2EAFF"/>
<path d="M51.8409 140V93.4545H81.7727V100.523H60.2727V111.432H69.25C72.8106 111.432 75.8636 112.015 78.4091 113.182C80.9697 114.333 82.9318 115.962 84.2955 118.068C85.6591 120.174 86.3409 122.652 86.3409 125.5C86.3409 128.364 85.6591 130.886 84.2955 133.068C82.9318 135.235 80.9697 136.932 78.4091 138.159C75.8636 139.386 72.8106 140 69.25 140H51.8409ZM60.2727 133.091H69.25C71.1288 133.091 72.7197 132.735 74.0227 132.023C75.3258 131.311 76.3106 130.371 76.9773 129.205C77.6591 128.038 78 126.773 78 125.409C78 123.439 77.2424 121.765 75.7273 120.386C74.2273 118.992 72.0682 118.295 69.25 118.295H60.2727V133.091ZM97.875 140.636V133.545H100.534C101.731 133.545 102.716 133.371 103.489 133.023C104.261 132.674 104.883 132.174 105.352 131.523C105.837 130.871 106.239 130.114 106.557 129.25L107.17 127.682L90.5341 93.4545H99.3523L110.943 118.364L120.966 93.4545H129.648L113.602 131.409C112.86 133.045 112.004 134.568 111.034 135.977C110.064 137.371 108.799 138.5 107.239 139.364C105.693 140.212 103.678 140.636 101.193 140.636H97.875ZM132.631 151.227V133.114H135.744C136.79 132.28 137.767 131.106 138.676 129.591C139.585 128.076 140.358 126 140.994 123.364C141.631 120.727 142.07 117.318 142.312 113.136L143.54 93.4545H173.29V133.114H178.472V151.182H170.381V140H140.722V151.227H132.631ZM145.562 133.114H165.199V100.523H151.131L150.403 113.136C150.206 116.303 149.888 119.136 149.449 121.636C149.009 124.136 148.456 126.341 147.79 128.25C147.123 130.144 146.381 131.765 145.562 133.114Z" fill="#3B5DA4"/>
</svg>
