<svg width="229" height="232" viewBox="0 0 229 232" fill="none" xmlns="http://www.w3.org/2000/svg">
<path d="M120.849 232C112.083 232 103.316 232 94.4872 231.848C92.1637 231.216 89.9119 230.688 87.6409 230.262C76.2058 228.116 65.3449 224.361 55.0712 218.891C43.7323 212.853 34.0181 204.885 25.752 195.057C19.8654 188.059 15.1413 180.34 11.5996 172.005C5.97849 158.776 2.09053 145.024 0.841455 130.623C0.814676 130.314 0.291571 130.049 0 129.763C4.37859e-07 121.015 4.43673e-07 112.268 0.153944 103.458C0.493517 103.102 0.797151 102.827 0.846447 102.512C1.31835 99.4958 1.677 96.461 2.20193 93.455C3.67368 85.0268 6.21766 76.9026 9.80549 69.1515C15.8424 56.1093 23.7466 44.3559 34.8195 34.9859C39.4905 31.0332 44.2788 27.192 49.2434 23.6176C55.9048 18.8216 63.0645 14.7811 70.7273 11.8126C77.7351 9.09781 84.8137 6.46251 92.0469 4.461C98.1662 2.76772 104.554 2.04189 110.813 0.842439C111.136 0.780682 111.376 0.290641 111.654 0C121.442 4.36912e-07 131.23 4.42713e-07 141.08 0.153482C141.51 0.495278 141.861 0.800903 142.247 0.852838C144.721 1.18624 147.241 1.28492 149.677 1.79134C159.784 3.8926 169.564 7.03036 178.778 11.7174C185.408 15.09 191.657 19.0534 197.488 23.7371C203.932 28.914 209.797 34.6405 214.472 41.3952C221.878 52.0949 226.75 63.8754 228.159 76.9349C228.192 77.2399 228.709 77.493 229 77.7702C229 85.4981 229 93.226 228.846 101.016C228.503 101.518 228.218 101.941 228.14 102.399C227.191 107.987 226.538 113.64 225.286 119.158C223.185 128.422 220.187 137.408 216.438 146.174C212.96 154.305 208.902 162.09 204.22 169.571C198.858 178.139 193.067 186.417 186.061 193.726C180.574 199.451 175.002 205.159 168.955 210.271C161.986 216.163 154.108 220.859 145.659 224.41C138.035 227.614 130.17 230.113 121.906 231.158C121.524 231.206 121.2 231.709 120.849 232Z" fill="#D2EAFF"/>
<path d="M55.9688 140.636V133.545H58.6278C59.8248 133.545 60.8097 133.371 61.5824 133.023C62.3551 132.674 62.9763 132.174 63.446 131.523C63.9309 130.871 64.3324 130.114 64.6506 129.25L65.2642 127.682L48.6278 93.4545H57.446L69.0369 118.364L79.0597 93.4545H87.7415L71.696 131.409C70.9536 133.045 70.0975 134.568 69.1278 135.977C68.1581 137.371 66.893 138.5 65.3324 139.364C63.7869 140.212 61.7718 140.636 59.2869 140.636H55.9688ZM97.9062 140.636V133.545H100.565C101.762 133.545 102.747 133.371 103.52 133.023C104.293 132.674 104.914 132.174 105.384 131.523C105.868 130.871 106.27 130.114 106.588 129.25L107.202 127.682L90.5653 93.4545H99.3835L110.974 118.364L120.997 93.4545H129.679L113.634 131.409C112.891 133.045 112.035 134.568 111.065 135.977C110.096 137.371 108.83 138.5 107.27 139.364C105.724 140.212 103.709 140.636 101.224 140.636H97.9062ZM132.662 151.227V133.114H135.776C136.821 132.28 137.798 131.106 138.707 129.591C139.616 128.076 140.389 126 141.026 123.364C141.662 120.727 142.101 117.318 142.344 113.136L143.571 93.4545H173.321V133.114H178.503V151.182H170.412V140H140.753V151.227H132.662ZM145.594 133.114H165.23V100.523H151.162L150.435 113.136C150.238 116.303 149.92 119.136 149.48 121.636C149.041 124.136 148.488 126.341 147.821 128.25C147.154 130.144 146.412 131.765 145.594 133.114Z" fill="#3B5DA4"/>
</svg>
