<svg width="229" height="232" viewBox="0 0 229 232" fill="none" xmlns="http://www.w3.org/2000/svg">
<path d="M120.849 232C112.083 232 103.316 232 94.4872 231.848C92.1637 231.216 89.9119 230.688 87.6409 230.262C76.2058 228.116 65.3449 224.361 55.0712 218.891C43.7323 212.853 34.0181 204.885 25.752 195.057C19.8654 188.059 15.1413 180.34 11.5996 172.005C5.97849 158.776 2.09053 145.024 0.841455 130.623C0.814676 130.314 0.291571 130.049 0 129.763C4.37859e-07 121.015 4.43673e-07 112.268 0.153944 103.458C0.493517 103.102 0.797151 102.827 0.846447 102.512C1.31835 99.4958 1.677 96.461 2.20193 93.455C3.67368 85.0268 6.21766 76.9026 9.80549 69.1515C15.8424 56.1093 23.7466 44.3559 34.8195 34.9859C39.4905 31.0332 44.2788 27.192 49.2434 23.6176C55.9048 18.8216 63.0645 14.7811 70.7273 11.8126C77.7351 9.09781 84.8137 6.46251 92.0469 4.461C98.1662 2.76772 104.554 2.04189 110.813 0.842439C111.136 0.780682 111.376 0.290641 111.654 0C121.442 4.36912e-07 131.23 4.42713e-07 141.08 0.153482C141.51 0.495278 141.861 0.800903 142.247 0.852838C144.721 1.18624 147.241 1.28492 149.677 1.79134C159.784 3.8926 169.564 7.03036 178.778 11.7174C185.408 15.09 191.657 19.0534 197.488 23.7371C203.932 28.914 209.797 34.6405 214.472 41.3952C221.878 52.0949 226.75 63.8754 228.159 76.9349C228.192 77.2399 228.709 77.493 229 77.7702C229 85.4981 229 93.226 228.846 101.016C228.503 101.518 228.218 101.941 228.14 102.399C227.191 107.987 226.538 113.64 225.286 119.158C223.185 128.422 220.187 137.408 216.438 146.174C212.96 154.305 208.902 162.09 204.22 169.571C198.858 178.139 193.067 186.417 186.061 193.726C180.574 199.451 175.002 205.159 168.955 210.271C161.986 216.163 154.108 220.859 145.659 224.41C138.035 227.614 130.17 230.113 121.906 231.158C121.524 231.206 121.2 231.709 120.849 232Z" fill="#D2EAFF"/>
<path d="M175.944 112.564C171.953 105.641 150 70.904 112.706 72.0266C78.2181 72.8997 58.2613 103.209 52.8355 112.564C52.2882 113.512 52 114.587 52 115.682C52 116.777 52.2882 117.852 52.8355 118.8C56.7645 125.598 77.7816 159.338 114.515 159.338H116.074C150.562 158.465 170.581 128.155 175.944 118.8C176.492 117.852 176.78 116.777 176.78 115.682C176.78 114.587 176.492 113.512 175.944 112.564ZM115.762 146.865C88.8826 147.488 71.358 124.476 65.8698 115.682C72.1064 105.641 88.3837 85.1233 113.33 84.4996C140.084 83.8136 157.671 106.889 163.222 115.682C156.798 125.723 140.708 146.241 115.762 146.865Z" fill="#3B5DA4"/>
<path d="M114.39 93.8544C110.073 93.8544 105.853 95.1346 102.263 97.533C98.6739 99.9315 95.8761 103.341 94.224 107.329C92.5719 111.318 92.1397 115.706 92.9819 119.941C93.8241 124.175 95.903 128.064 98.9557 131.117C102.008 134.169 105.898 136.248 110.132 137.091C114.366 137.933 118.755 137.501 122.743 135.848C126.732 134.196 130.141 131.399 132.539 127.809C134.938 124.22 136.218 119.999 136.218 115.682C136.218 109.893 133.918 104.341 129.825 100.248C125.731 96.1541 120.179 93.8544 114.39 93.8544ZM114.39 125.037C112.54 125.037 110.731 124.488 109.193 123.46C107.655 122.432 106.456 120.971 105.748 119.262C105.04 117.553 104.854 115.672 105.215 113.857C105.576 112.043 106.467 110.376 107.775 109.067C109.084 107.759 110.751 106.868 112.565 106.507C114.38 106.146 116.261 106.331 117.97 107.04C119.68 107.748 121.141 108.947 122.168 110.485C123.196 112.023 123.745 113.832 123.745 115.682C123.745 118.163 122.759 120.543 121.005 122.297C119.251 124.051 116.871 125.037 114.39 125.037Z" fill="#3B5DA4"/>
</svg>
