<svg width="229" height="232" viewBox="0 0 229 232" fill="none" xmlns="http://www.w3.org/2000/svg">
<path d="M120.849 232C112.083 232 103.316 232 94.4872 231.848C92.1637 231.216 89.9119 230.688 87.6409 230.262C76.2058 228.116 65.3449 224.361 55.0712 218.891C43.7323 212.853 34.0181 204.885 25.752 195.057C19.8654 188.059 15.1413 180.34 11.5996 172.005C5.97849 158.776 2.09053 145.024 0.841455 130.623C0.814676 130.314 0.291571 130.049 0 129.763C4.37859e-07 121.015 4.43673e-07 112.268 0.153944 103.458C0.493517 103.102 0.797151 102.827 0.846447 102.512C1.31835 99.4958 1.677 96.461 2.20193 93.455C3.67368 85.0268 6.21766 76.9026 9.80549 69.1515C15.8424 56.1093 23.7466 44.3559 34.8195 34.9859C39.4905 31.0332 44.2788 27.192 49.2434 23.6176C55.9048 18.8216 63.0645 14.7811 70.7273 11.8126C77.7351 9.09781 84.8137 6.46251 92.0469 4.461C98.1662 2.76772 104.554 2.04189 110.813 0.842439C111.136 0.780682 111.376 0.290641 111.654 0C121.442 4.36912e-07 131.23 4.42713e-07 141.08 0.153482C141.51 0.495278 141.861 0.800903 142.247 0.852838C144.721 1.18624 147.241 1.28492 149.677 1.79134C159.784 3.8926 169.564 7.03036 178.778 11.7174C185.408 15.09 191.657 19.0534 197.488 23.7371C203.932 28.914 209.797 34.6405 214.472 41.3952C221.878 52.0949 226.75 63.8754 228.159 76.9349C228.192 77.2399 228.709 77.493 229 77.7702C229 85.4981 229 93.226 228.846 101.016C228.503 101.518 228.218 101.941 228.14 102.399C227.191 107.987 226.538 113.64 225.286 119.158C223.185 128.422 220.187 137.408 216.438 146.174C212.96 154.305 208.902 162.09 204.22 169.571C198.858 178.139 193.067 186.417 186.061 193.726C180.574 199.451 175.002 205.159 168.955 210.271C161.986 216.163 154.108 220.859 145.659 224.41C138.035 227.614 130.17 230.113 121.906 231.158C121.524 231.206 121.2 231.709 120.849 232Z" fill="#D2EAFF"/>
<path d="M114.907 111.037C118.965 111.037 122.932 109.833 126.307 107.579C129.681 105.324 132.311 102.12 133.864 98.3705C135.417 94.6212 135.823 90.4957 135.031 86.5155C134.24 82.5353 132.285 78.8793 129.416 76.0097C126.546 73.1402 122.89 71.186 118.91 70.3943C114.93 69.6026 110.804 70.0089 107.055 71.5619C103.306 73.1149 100.101 75.7448 97.8468 79.119C95.5922 82.4932 94.3888 86.4603 94.3888 90.5184C94.3888 95.9603 96.5506 101.179 100.399 105.027C104.246 108.875 109.465 111.037 114.907 111.037Z" fill="#3B5DA4"/>
<path d="M145.685 162.333C147.045 162.333 148.35 161.792 149.312 160.83C150.274 159.868 150.814 158.564 150.814 157.203C150.814 147.68 147.031 138.547 140.297 131.813C133.564 125.079 124.43 121.296 114.907 121.296C105.384 121.296 96.2509 125.079 89.517 131.813C82.7831 138.547 79 147.68 79 157.203C79 158.564 79.5404 159.868 80.5024 160.83C81.4644 161.792 82.7691 162.333 84.1296 162.333H145.685Z" fill="#3B5DA4"/>
</svg>
